<svg id="_85_data_center_outline" xmlns="http://www.w3.org/2000/svg" xmlns:xlink="http://www.w3.org/1999/xlink" viewBox="0 0 500 500" data-imageid="data-center-35" imageName="Data Center" class="illustrations_image" style="width: 166px;"><defs><style>.cls-1_data-center-35{fill:url(#linear-gradient);}.cls-1_data-center-35,.cls-2_data-center-35,.cls-3_data-center-35,.cls-4_data-center-35,.cls-5_data-center-35,.cls-6_data-center-35,.cls-7_data-center-35,.cls-8_data-center-35,.cls-9_data-center-35,.cls-10_data-center-35,.cls-11_data-center-35,.cls-12_data-center-35,.cls-13_data-center-35,.cls-14_data-center-35{stroke-width:0px;}.cls-2_data-center-35{isolation:isolate;opacity:.18;}.cls-2_data-center-35,.cls-14_data-center-35{fill:#68e1fd;}.cls-3_data-center-35{fill:url(#linear-gradient-4-data-center-35);}.cls-4_data-center-35{fill:url(#linear-gradient-2-data-center-35);}.cls-5_data-center-35{fill:url(#linear-gradient-3-data-center-35);}.cls-6_data-center-35{fill:url(#linear-gradient-8-data-center-35);}.cls-7_data-center-35{fill:url(#linear-gradient-9-data-center-35);}.cls-8_data-center-35{fill:url(#linear-gradient-7-data-center-35);}.cls-9_data-center-35{fill:url(#linear-gradient-5-data-center-35);}.cls-10_data-center-35{fill:url(#linear-gradient-6-data-center-35);}.cls-11_data-center-35{fill:#231f20;}.cls-12_data-center-35{fill:#fff;}.cls-13_data-center-35{fill:#ffb4a3;}</style><style class="darkreader darkreader--sync" media="screen"/><linearGradient id="linear-gradient-data-center-35" x1="332.76" y1="2621.16" x2="333.74" y2="2603.02" gradientTransform="translate(-31 2998.54) scale(1 -1)" gradientUnits="userSpaceOnUse"><stop offset="0" stop-color="#000" stop-opacity="0" data-darkreader-inline-stopcolor="" style="--darkreader-inline-stopcolor: #000000;"/><stop offset=".41" stop-color="#000" stop-opacity=".41" data-darkreader-inline-stopcolor="" style="--darkreader-inline-stopcolor: #000000;"/><stop offset=".99" stop-color="#000" data-darkreader-inline-stopcolor="" style="--darkreader-inline-stopcolor: #000000;"/></linearGradient><linearGradient id="linear-gradient-2-data-center-35" x1="168.94" y1="2872.95" x2="470.62" y2="2872.95" gradientTransform="translate(-64.12 2997.67) scale(1 -1)" gradientUnits="userSpaceOnUse"><stop offset="0" stop-color="#000" stop-opacity="0" data-darkreader-inline-stopcolor="" style="--darkreader-inline-stopcolor: #000000;"/><stop offset=".99" stop-color="#000" data-darkreader-inline-stopcolor="" style="--darkreader-inline-stopcolor: #000000;"/></linearGradient><linearGradient id="linear-gradient-3-data-center-35" x1="316.93" y1="3010.25" x2="339.49" y2="2600.35" xlink:href="#linear-gradient-2-data-center-35"/><linearGradient id="linear-gradient-4-data-center-35" x1="179.73" y1="2611.29" x2="179.73" y2="2578.61" gradientTransform="translate(-64.12 2997.67) scale(1 -1)" xlink:href="#linear-gradient-data-center-35"/><linearGradient id="linear-gradient-5-data-center-35" x1="286.26" y1="2699.57" x2="262.11" y2="2731.45" xlink:href="#linear-gradient-2-data-center-35"/><linearGradient id="linear-gradient-6-data-center-35" x1="277.16" y1="2677.31" x2="331.83" y2="2671.67" xlink:href="#linear-gradient-2-data-center-35"/><linearGradient id="linear-gradient-7-data-center-35" x1="299.15" y1="2676.19" x2="285.67" y2="2780.14" xlink:href="#linear-gradient-2-data-center-35"/><linearGradient id="linear-gradient-8-data-center-35" x1="215.58" y1="420.48" x2="213.03" y2="211.63" gradientTransform="matrix(1,0,0,1,0,0)" xlink:href="#linear-gradient-2-data-center-35"/><linearGradient id="linear-gradient-9-data-center-35" x1="220.25" y1="337.05" x2="203.91" y2="64.37" gradientTransform="matrix(1,0,0,1,0,0)" xlink:href="#linear-gradient-2-data-center-35"/></defs><path id="background_data-center-35" class="cls-2_data-center-35 targetColor" d="M46.97,154.5c-43.57,108.42-5.57,172.08-1.92,188.58,5.52,25.06,40.58,137.33,171.84,107.61,27.13-6.15,67.83-25.93,95.58-27.86,23.44-1.64,46.5,5.61,69.85,8.22,23.35,2.61,49.82-.79,65.02-18.71,13.35-15.75,14.4-38.53,11.41-58.97-3-20.44-9.37-40.6-8.44-61.2.89-18.77,7.71-36.66,12.74-54.76,7.5-27.01,11.01-55.77,4.68-83.08-6.32-27.3-23.57-53-49.02-64.75-49.33-22.76-110.53,11.58-160.72-9.32-27.5-11.44-170.07-27.67-211.01,74.23Z" style="fill: rgb(13, 110, 253); --darkreader-inline-fill: #2394fd;" data-darkreader-inline-fill=""/><g id="tablet_data-center-35"><path class="cls-14_data-center-35 targetColor" d="M352.27,334.29h-71.1c-1.2,0-3.02-.98-3.02-2.17s1.82-2.18,3.02-2.18h71.1c8.63,0,15.63-7,15.64-15.63v-64.47c0-6.16-5-11.15-11.16-11.16h-50.11c-7.59,0-13.74-6.16-13.75-13.75v-16.37c-.08-1.2.84-2.24,2.04-2.32,1.2-.08,2.24.84,2.32,2.04,0,.09,0,.19,0,.28v16.37c0,5.19,4.21,9.39,9.39,9.39h50.11c8.56,0,15.5,6.95,15.51,15.51v64.47c-.01,11.03-8.96,19.97-19.99,19.98Z" style="fill: rgb(13, 110, 253); --darkreader-inline-fill: #2394fd;" data-darkreader-inline-fill=""/><rect class="cls-14_data-center-35 targetColor" x="253.55" y="273.28" width="95.12" height="112.77" rx="9.68" ry="9.68" style="fill: rgb(13, 110, 253); --darkreader-inline-fill: #2394fd;" data-darkreader-inline-fill=""/><path class="cls-12_data-center-35" d="M344.21,286.21v84.5c0,4.83-3.9,8.74-8.73,8.75h-68.53c-4.83,0-8.75-3.91-8.75-8.74h0v-84.51c0-4.83,3.92-8.75,8.75-8.75h68.51c4.83,0,8.75,3.92,8.75,8.75h0Z"/><polygon class="cls-2_data-center-35 targetColor" points="269.89 317.41 282.32 311.85 297.35 324.6 312.72 304.34 328.08 325.91 328.08 340.82 270.5 340.82 269.89 317.41" style="fill: rgb(13, 110, 253); --darkreader-inline-fill: #2394fd;" data-darkreader-inline-fill=""/><path class="cls-1_data-center-35" d="M298.54,381.07h6.99c.81,0,1.47.66,1.47,1.47h0c0,.81-.66,1.47-1.47,1.47h-6.99c-.81,0-1.47-.66-1.47-1.47h0c0-.81.66-1.47,1.47-1.47Z"/><polygon class="cls-14_data-center-35 targetColor" points="332.82 341.38 269.63 341.38 269.63 299.43 270.5 299.43 270.5 340.51 332.82 340.51 332.82 341.38" style="fill: rgb(13, 110, 253); --darkreader-inline-fill: #2394fd;" data-darkreader-inline-fill=""/><rect class="cls-14_data-center-35 targetColor" x="279.42" y="309.81" width="5.03" height="31.01" style="fill: rgb(13, 110, 253); --darkreader-inline-fill: #2394fd;" data-darkreader-inline-fill=""/><rect class="cls-14_data-center-35 targetColor" x="310.79" y="302.2" width="5.03" height="38.63" style="fill: rgb(13, 110, 253); --darkreader-inline-fill: #2394fd;" data-darkreader-inline-fill=""/><rect class="cls-14_data-center-35 targetColor" x="294.86" y="321.99" width="5.03" height="18.83" style="fill: rgb(13, 110, 253); --darkreader-inline-fill: #2394fd;" data-darkreader-inline-fill=""/><rect class="cls-14_data-center-35 targetColor" x="324.93" y="321.99" width="5.03" height="18.83" style="fill: rgb(13, 110, 253); --darkreader-inline-fill: #2394fd;" data-darkreader-inline-fill=""/><path class="cls-2_data-center-35 targetColor" d="M344.21,286.21v7.69l-86.04,46.91v-54.6c0-4.83,3.92-8.75,8.75-8.75h68.51c4.83-.01,8.76,3.89,8.77,8.72,0,0,0,.02,0,.03Z" style="fill: rgb(13, 110, 253); --darkreader-inline-fill: #2394fd;" data-darkreader-inline-fill=""/></g><g id="phone_data-center-35"><path class="cls-14_data-center-35 targetColor" d="M440.89,352.71h-4.35v-168.7c0-6.37-5.16-11.53-11.53-11.53h-27.5v-4.36h27.5c8.75,0,15.85,7.1,15.86,15.86l.02,168.73Z" style="fill: rgb(13, 110, 253); --darkreader-inline-fill: #2394fd;" data-darkreader-inline-fill=""/><rect class="cls-14_data-center-35 targetColor" x="398.27" y="272.3" width="75.51" height="121.6" rx="17.22" ry="17.22" style="fill: rgb(13, 110, 253); --darkreader-inline-fill: #2394fd;" data-darkreader-inline-fill=""/><path class="cls-12_data-center-35" d="M468.61,289.32v76.83c0,6.1-4.95,11.05-11.05,11.05h-43.33c-6.1,0-11.06-4.94-11.06-11.04h0v-76.84c0-6.11,4.95-11.06,11.06-11.07h43.33c6.11,0,11.06,4.96,11.05,11.07h0Z"/><path class="cls-12_data-center-35" d="M428.18,382.3h17.48c2.03,0,3.68,1.65,3.68,3.68h0c0,2.03-1.65,3.68-3.68,3.68h-17.48c-2.03,0-3.68-1.65-3.68-3.68h0c0-2.03,1.65-3.68,3.68-3.68Z"/><path class="cls-2_data-center-35 targetColor" d="M415.69,304.34h42.16c1.63,0,2.94,1.32,2.94,2.94h0c0,1.62-1.32,2.94-2.94,2.94h-42.16c-1.63,0-2.94-1.32-2.94-2.94h0c0-1.62,1.32-2.94,2.94-2.94Z" style="fill: rgb(13, 110, 253); --darkreader-inline-fill: #2394fd;" data-darkreader-inline-fill=""/><path class="cls-2_data-center-35 targetColor" d="M415.69,315.94h42.16c1.63,0,2.94,1.32,2.94,2.94h0c0,1.62-1.32,2.94-2.94,2.94h-42.16c-1.63,0-2.94-1.32-2.94-2.94h0c0-1.62,1.32-2.94,2.94-2.94Z" style="fill: rgb(13, 110, 253); --darkreader-inline-fill: #2394fd;" data-darkreader-inline-fill=""/><path class="cls-2_data-center-35 targetColor" d="M415.69,327.54h42.16c1.63,0,2.94,1.32,2.94,2.94h0c0,1.62-1.32,2.94-2.94,2.94h-42.16c-1.63,0-2.94-1.32-2.94-2.94h0c0-1.62,1.32-2.94,2.94-2.94Z" style="fill: rgb(13, 110, 253); --darkreader-inline-fill: #2394fd;" data-darkreader-inline-fill=""/><path class="cls-2_data-center-35 targetColor" d="M415.69,339.14h42.16c1.63,0,2.94,1.32,2.94,2.94h0c0,1.62-1.32,2.94-2.94,2.94h-42.16c-1.63,0-2.94-1.32-2.94-2.94h0c0-1.62,1.32-2.94,2.94-2.94Z" style="fill: rgb(13, 110, 253); --darkreader-inline-fill: #2394fd;" data-darkreader-inline-fill=""/><path class="cls-2_data-center-35 targetColor" d="M468.61,320.72v45.43c0,6.1-4.95,11.05-11.05,11.05h-43.33c-6.1,0-11.06-4.94-11.06-11.04h0v-9.64l65.42-40.14.03,4.34Z" style="fill: rgb(13, 110, 253); --darkreader-inline-fill: #2394fd;" data-darkreader-inline-fill=""/></g><g id="cloud_data-center-35"><path class="cls-4_data-center-35" d="M406.5,172.27c0,21.66-17.57,39.22-39.23,39.23h-81.14c-1.78,0-3.56-.12-5.32-.38-2.13.26-4.27.38-6.41.38h-114.28c-30.53.39-55.59-24.05-55.98-54.58-.39-30.53,24.05-55.59,54.58-55.98.47,0,.93,0,1.4,0h22.51c5.04-39.51,41.15-67.45,80.65-62.41,30.66,3.91,55.42,26.93,61.56,57.22h6.99c20.01,0,36.24,16.21,36.24,36.22h0v1.07c21.36.43,38.44,17.86,38.43,39.22Z"/><path class="cls-14_data-center-35 targetColor" d="M397.67,163.44c0,21.66-17.57,39.22-39.23,39.23h-81.13c-1.78,0-3.56-.12-5.32-.38-2.12.26-4.26.38-6.4.38h-114.3c-30.53.39-55.59-24.05-55.98-54.58-.39-30.53,24.05-55.59,54.58-55.98.47,0,.93,0,1.4,0h22.51c5.01-39.51,41.09-67.47,80.6-62.46,30.7,3.89,55.49,26.94,61.61,57.27h6.99c20.01,0,36.23,16.21,36.24,36.22v1.08c21.35.43,38.44,17.87,38.43,39.22Z" style="fill: rgb(13, 110, 253); --darkreader-inline-fill: #2394fd;" data-darkreader-inline-fill=""/><path class="cls-5_data-center-35" d="M397.67,163.44c0,21.66-17.57,39.22-39.23,39.23h-81.13c-1.78,0-3.56-.12-5.32-.38-2.12.26-4.26.38-6.4.38h-110.99c-26.47-15.22-35.58-49.02-20.36-75.49,9.87-17.15,28.15-27.72,47.94-27.72h22.52c4.59-36.02,35.24-63.01,71.55-63h.89c20.09,9.88,34.46,28.51,38.9,50.45h6.99c20.01,0,36.23,16.21,36.24,36.22v1.08c21.35.44,38.42,17.88,38.41,39.23Z"/></g><g id="laptop_data-center-35"><path class="cls-14_data-center-35 targetColor" d="M83.95,352.71h-4.36v-168.7c.01-8.76,7.11-15.85,15.87-15.86h27.5v4.36h-27.5c-6.37,0-11.53,5.16-11.53,11.53h0l.02,168.68Z" style="fill: rgb(13, 110, 253); --darkreader-inline-fill: #2394fd;" data-darkreader-inline-fill=""/><rect class="cls-14_data-center-35 targetColor" x="41.33" y="305.15" width="148.56" height="85.31" rx="11.93" ry="11.93" style="fill: rgb(13, 110, 253); --darkreader-inline-fill: #2394fd;" data-darkreader-inline-fill=""/><rect class="cls-12_data-center-35" x="46.35" y="309.33" width="138.88" height="76.48" rx="10.92" ry="10.92"/><path class="cls-14_data-center-35 targetColor" d="M189.89,396.07c0,3.09-2.48,5.6-5.57,5.61-.01,0-.02,0-.04,0H46.94c-3.1,0-5.61-2.51-5.61-5.61s2.51-5.61,5.61-5.61h137.34c3.09,0,5.6,2.51,5.61,5.61h0Z" style="fill: rgb(13, 110, 253); --darkreader-inline-fill: #2394fd;" data-darkreader-inline-fill=""/><path class="cls-3_data-center-35" d="M188.83,392.81c-.17.25-.36.48-.58.69-1.05,1.06-2.48,1.65-3.97,1.65H46.94c-1.81,0-3.51-.87-4.56-2.34,1.04-1.48,2.75-2.36,4.56-2.34h137.34c1.81,0,3.5.87,4.55,2.34Z"/><path class="cls-2_data-center-35 targetColor" d="M66.34,327.13h42.16c1.63,0,2.94,1.32,2.94,2.94h0c0,1.62-1.32,2.94-2.94,2.94h-42.16c-1.63,0-2.94-1.32-2.94-2.94h0c0-1.62,1.32-2.94,2.94-2.94Z" style="fill: rgb(13, 110, 253); --darkreader-inline-fill: #2394fd;" data-darkreader-inline-fill=""/><path class="cls-2_data-center-35 targetColor" d="M66.34,338.74h42.16c1.63,0,2.94,1.32,2.94,2.94h0c0,1.62-1.32,2.94-2.94,2.94h-42.16c-1.63,0-2.94-1.32-2.94-2.94h0c0-1.62,1.32-2.94,2.94-2.94Z" style="fill: rgb(13, 110, 253); --darkreader-inline-fill: #2394fd;" data-darkreader-inline-fill=""/><path class="cls-2_data-center-35 targetColor" d="M66.34,350.35h42.16c1.63,0,2.94,1.32,2.94,2.94h0c0,1.62-1.32,2.94-2.94,2.94h-42.16c-1.63,0-2.94-1.32-2.94-2.94h0c0-1.62,1.32-2.94,2.94-2.94Z" style="fill: rgb(13, 110, 253); --darkreader-inline-fill: #2394fd;" data-darkreader-inline-fill=""/><path class="cls-2_data-center-35 targetColor" d="M66.34,361.95h42.16c1.63,0,2.94,1.32,2.94,2.94h0c0,1.62-1.32,2.94-2.94,2.94h-42.16c-1.63,0-2.94-1.32-2.94-2.94h0c0-1.62,1.32-2.94,2.94-2.94Z" style="fill: rgb(13, 110, 253); --darkreader-inline-fill: #2394fd;" data-darkreader-inline-fill=""/><path class="cls-2_data-center-35 targetColor" d="M180.96,311.6l-134.62,47.98v-39.32c0-6.04,4.89-10.93,10.93-10.93h117.03c2.41,0,4.76.79,6.66,2.27Z" style="fill: rgb(13, 110, 253); --darkreader-inline-fill: #2394fd;" data-darkreader-inline-fill=""/><path class="cls-2_data-center-35 targetColor" d="M185.23,353.02v21.86c0,6.03-4.9,10.91-10.93,10.91h-70.85l81.78-32.77Z" style="fill: rgb(13, 110, 253); --darkreader-inline-fill: #2394fd;" data-darkreader-inline-fill=""/></g><g id="character_data-center-35"><path class="cls-11_data-center-35" d="M233.86,269.33c.03-.72-.18-1.44-.59-2.04-.44-.6-1.24-.8-1.92-.48-.35.2-.58.59-.94.77s-.97-.07-.84-.46c-1.66.26-2.82,1.7-4.24,2.59-1.13.69-2.44,1.05-3.55,1.72s-2.15,1.87-2,3.18c.1.41.15.84.14,1.26-.08.29-.2.57-.34.84-.3.99-.18,2.05.33,2.94.44.89,1.06,1.77,1.42,2.66.26.97.58,1.92.98,2.84.5.89,1.59,1.54,2.49,1.11-.75-1.15-.28-2.66.26-3.96.89-2.04,1.91-4.15,3.8-5.32.76-.36,1.46-.84,2.06-1.44.38-.55.72-1.12,1.03-1.7.98-1.49,1.95-2.53,1.92-4.51Z"/><path class="cls-14_data-center-35 targetColor" d="M216.86,283.02c-.23-.35-.54-.65-.89-.89-1.09-.63-2.43.2-3.39,1.01-1.31,1.13-2.56,2.33-3.74,3.6-.43.4-.74.91-.9,1.48-.06.55.03,1.1.26,1.6,1.3,3.5,3.46,6.62,6.26,9.08.42.43.96.72,1.55.83.58,0,1.15-.17,1.63-.48l6.95-3.55c1.26-.65,2.76-1.62,2.21-3.28-.36-1.07-1.51-1.44-2.37-2.05-2.86-2.08-5.42-4.56-7.57-7.36Z" style="fill: rgb(13, 110, 253); --darkreader-inline-fill: #2394fd;" data-darkreader-inline-fill=""/><path class="cls-9_data-center-35" d="M216.86,283.09c-.23-.35-.54-.65-.89-.89-1.09-.63-2.43.19-3.39,1-1.32,1.13-2.57,2.33-3.75,3.59-.45.41-.77.93-.93,1.51-.06.55.03,1.1.26,1.61,1.31,3.49,3.46,6.61,6.26,9.07.42.43.96.73,1.55.84.58,0,1.14-.18,1.63-.49l6.95-3.55c1.26-.65,2.76-1.62,2.21-3.28-.36-1.06-1.51-1.43-2.37-2.05-2.85-2.08-5.39-4.56-7.53-7.37Z"/><path class="cls-14_data-center-35 targetColor" d="M233.32,299.85c.84,3.5.59,7.16.32,10.75-.79,10.91-1.61,21.94-5.02,32.33-.89,2.76-2.11,5.61-4.43,7.29-3.84,2.74-9.61,1.23-12.66-2.37-3.04-3.6-3.79-8.66-3.39-13.36.4-4.7,1.77-9.25,2.6-13.9,1.32-7.82,0-20.12,5.38-26.61,5.75-6.99,15.42-1.59,17.2,5.86Z" style="fill: rgb(13, 110, 253); --darkreader-inline-fill: #2394fd;" data-darkreader-inline-fill=""/><path class="cls-10_data-center-35" d="M233.32,299.85c.84,3.5.59,7.16.32,10.75-.79,10.91-1.61,21.94-5.02,32.33-.89,2.76-2.11,5.61-4.43,7.29-3.84,2.74-9.61,1.23-12.66-2.37-3.04-3.6-3.79-8.66-3.39-13.36.4-4.7,1.77-9.25,2.6-13.9,1.32-7.82,0-20.12,5.38-26.61,5.75-6.99,15.42-1.59,17.2,5.86Z"/><path class="cls-11_data-center-35" d="M227.95,344.74c-.19,1.03-.34,2.06-.43,3.1-1.46,6.65-3.69,13.11-6.64,19.25-1.37,2.87-2.93,5.7-3.76,8.78-1.16,4.25-.89,8.76-.33,13.14.77,6.02,2.46,10.1,3.74,16.04-1.05.73-10.12,6.34-11.4,6.5-2.57-1.72,4.43-6.95,4.36-7.85-.37-4.59-.89-5.74-2.26-9.69-1.15-3.41-2.32-6.83-3.28-10.3-1.08-3.42-1.61-6.98-1.57-10.56.19-2.46.6-4.9,1.23-7.29l2.85-12.35-11.53,8.87c-.54.36-.99.83-1.34,1.37-.34.81-.44,1.71-.27,2.58.76,7.38,2.64,14.6,5.56,21.41l-6.47,6.49c-1.07,1.24-2.44,2.21-3.96,2.81-1.06-1.03-.56-2.85.28-4.06.84-1.22,3.44-3.01,3.55-4.48.05-.65-2.41-4.28-2.57-4.91-1.86-7.49-2.97-11.33-3.78-19-.25-1.83-.25-3.68,0-5.51.75-4.18,3.75-7.55,6.63-10.64,4.35-4.73,7.65-8.52,11.35-12.8,1.77,2.17,4.06,6.1,12.51,8.28,3.35.82,5.51.35,7.52.82Z"/><path class="cls-13_data-center-35" d="M236.79,315.57l-1.33,7.14c-.44,2.35-1.05,4.93-3.03,6.21-1.68.94-3.73.98-5.44.1-1.68-.87-3.16-2.08-4.36-3.54-2.03-2.4-3.95-4.88-5.74-7.46-.65-.92-1.28-1.86-1.89-2.81-.54-.8-1.09-1.61-1.6-2.44-1.22-1.95-2.25-4.01-2.62-6.26-.17-1.12-.17-2.26,0-3.38.14-1.01.65-2.2,1.66-2.27.34.03.67.12.96.28.29.15.54.35.75.61.97.92,1.8,2.1,2.74,3.04.19.2.4.39.61.57.34-.3.61-.67.77-1.1.81.2,1.11,1.22.99,2.05-.22.8-.37,1.63-.46,2.46.17,1.14.72,2.19,1.56,2.98l7.67,8.87c1.34-1.38,1.5-3.45,1.98-5.32.49-1.87,1.87-3.85,3.78-3.64.7.13,1.35.44,1.9.88.46.27.84.66,1.1,1.13.19.62.19,1.28,0,1.9Z"/><path class="cls-14_data-center-35 targetColor" d="M229.23,303.09l-.84,11.26c-.24.87.24,1.77,1.1,2.06l7.48,4.24c1.92-3.11,2.08-6.97,2.04-10.64.03-2.68-.22-5.36-.75-7.98-.26-1.25-.72-2.45-1.37-3.55-.69-1.11-1.63-2.04-2.75-2.71-.77-.46-5.32-3.55-6.1-2.89-.89.8,1.94,4.77,1.7,5.91-.27,1.42-.44,2.86-.51,4.31Z" style="fill: rgb(13, 110, 253); --darkreader-inline-fill: #2394fd;" data-darkreader-inline-fill=""/><path class="cls-8_data-center-35" d="M229.23,303.09l-.84,11.26c-.24.87.24,1.77,1.1,2.06l7.48,4.24c1.92-3.11,2.08-6.97,2.04-10.64.03-2.68-.22-5.36-.75-7.98-.26-1.25-.72-2.45-1.37-3.55-.69-1.11-1.63-2.04-2.75-2.71-.77-.46-5.32-3.55-6.1-2.89-.89.8,1.94,4.77,1.7,5.91-.27,1.42-.44,2.86-.51,4.31Z"/><path class="cls-13_data-center-35" d="M217.7,263.94c-.03,1.85-.72,3.62-1.93,5.01-.74.61-1.42,1.28-2.06,2-1.06,1.45-.95,3.41-.8,5.2.2,2.32.4,4.63.59,6.95-1.25.7-2.44,1.52-3.55,2.43-.77-1.47-1.45-2.98-2.01-4.54-.54-1.1-.9-2.27-1.08-3.48-.05-.76-.01-1.52.12-2.27.71-4.63,2.67-8.97,5.69-12.55-.09-.12-.15-.26-.17-.41-.14-1.09-.09-2.19.15-3.26.01-.21.14-.41.33-.51.23-.08.46.13.59.35.37.65.59,1.37.66,2.12.9-.9,1.87-1.73,2.9-2.47.4,1.78.6,3.6.59,5.43Z"/><path class="cls-13_data-center-35" d="M224.06,294.05c.57.69,1.53.91,2.34.54.88-.36,1.69-.87,2.39-1.5.17-.11.32-.26.43-.43.08-.19.13-.39.13-.59.09-1.15.15-2.32.18-3.48.03-1.16-.04-2.77-1.03-3.61-.12-.12-.27-.21-.43-.25-.19-.02-.39,0-.58.05-.76.15-1.49.45-2.14.89-1.21.89-1.49,2.66-1.54,4.05-.04,1.16-.38,3.28.24,4.33Z"/><path class="cls-13_data-center-35" d="M233.45,277.58s.25,6.87-.82,9.07c-1.06,2.2-5.56,2.21-7.27.41-1.71-1.8-3.55-6.86-2.62-11.19.93-4.34,9.15-7.48,10.71,1.72Z"/><path class="cls-11_data-center-35" d="M227.76,272.82c-1.16.69-1.99,1.81-2.32,3.12-.32,1.3-.47,2.63-.43,3.96l-.04,2.02c-.44-.61-1.04-1.1-1.73-1.4-.31.98-.22,2.04.25,2.95.18.27.32.57.42.89.11.34-.03.7-.33.89-.49.23-.96-.35-1.2-.83-.95-1.94-1.93-4.05-1.54-6.21.17-.78.44-1.54.81-2.24.78-1.91,2.07-3.57,3.73-4.79,1.36-.9,3.06-1.13,4.61-.62,2.63,1-1.38,1.81-2.23,2.26Z"/><path class="cls-14_data-center-35 targetColor" d="M216.89,318.02v132.67l-3.49.72v-138.64c.51.83,1.06,1.64,1.6,2.44.61.95,1.24,1.89,1.89,2.81Z" style="fill: rgb(13, 110, 253); --darkreader-inline-fill: #2394fd;" data-darkreader-inline-fill=""/><path class="cls-14_data-center-35 targetColor" d="M216.89,202.5v102.29c-.94-.94-1.77-2.12-2.74-3.04-.21-.26-.46-.46-.75-.61v-98.64h3.49Z" style="fill: rgb(13, 110, 253); --darkreader-inline-fill: #2394fd;" data-darkreader-inline-fill=""/><path class="cls-6_data-center-35" d="M216.89,318.02v132.67l-3.49.72v-138.64c.51.83,1.06,1.64,1.6,2.44.61.95,1.24,1.89,1.89,2.81Z"/><path class="cls-7_data-center-35" d="M216.89,202.5v102.29c-.94-.94-1.77-2.12-2.74-3.04-.21-.26-.46-.46-.75-.61v-98.64h3.49Z"/></g></svg>