<svg id="_87_coding_outline" xmlns="http://www.w3.org/2000/svg" xmlns:xlink="http://www.w3.org/1999/xlink" viewBox="0 0 500 500" data-imageid="coding-2-22" imageName="Coding 2" class="illustrations_image" style="width: 166px;"><defs><style>.cls-1_coding-2-22{fill:url(#linear-gradient);}.cls-1_coding-2-22,.cls-2_coding-2-22,.cls-3_coding-2-22,.cls-4_coding-2-22,.cls-5_coding-2-22,.cls-6_coding-2-22,.cls-7_coding-2-22,.cls-8_coding-2-22,.cls-9_coding-2-22,.cls-10_coding-2-22,.cls-11_coding-2-22,.cls-12_coding-2-22,.cls-13_coding-2-22,.cls-14_coding-2-22,.cls-15_coding-2-22,.cls-16_coding-2-22,.cls-17_coding-2-22,.cls-18_coding-2-22,.cls-19_coding-2-22,.cls-20_coding-2-22,.cls-21_coding-2-22,.cls-22_coding-2-22,.cls-23_coding-2-22,.cls-24_coding-2-22,.cls-25_coding-2-22,.cls-26_coding-2-22,.cls-27_coding-2-22,.cls-28_coding-2-22,.cls-29_coding-2-22,.cls-30_coding-2-22,.cls-31_coding-2-22,.cls-32_coding-2-22,.cls-33_coding-2-22,.cls-34_coding-2-22,.cls-35_coding-2-22,.cls-36_coding-2-22,.cls-37_coding-2-22,.cls-38_coding-2-22,.cls-39_coding-2-22,.cls-40_coding-2-22,.cls-41_coding-2-22,.cls-42_coding-2-22,.cls-43_coding-2-22,.cls-44_coding-2-22,.cls-45_coding-2-22,.cls-46_coding-2-22,.cls-47_coding-2-22,.cls-48_coding-2-22,.cls-49_coding-2-22,.cls-50_coding-2-22,.cls-51_coding-2-22,.cls-52_coding-2-22,.cls-53_coding-2-22,.cls-54_coding-2-22,.cls-55_coding-2-22,.cls-56_coding-2-22,.cls-57_coding-2-22{stroke-width:0px;}.cls-2_coding-2-22{opacity:.18;}.cls-2_coding-2-22,.cls-45_coding-2-22{isolation:isolate;}.cls-2_coding-2-22,.cls-57_coding-2-22{fill:#68e1fd;}.cls-3_coding-2-22{fill:url(#linear-gradient-38-coding-2-22);}.cls-4_coding-2-22{fill:url(#linear-gradient-33-coding-2-22);}.cls-5_coding-2-22{fill:url(#linear-gradient-29-coding-2-22);}.cls-6_coding-2-22{fill:url(#linear-gradient-32-coding-2-22);}.cls-7_coding-2-22{fill:url(#linear-gradient-30-coding-2-22);}.cls-8_coding-2-22{fill:url(#linear-gradient-31-coding-2-22);}.cls-9_coding-2-22{fill:url(#linear-gradient-36-coding-2-22);}.cls-10_coding-2-22{fill:url(#linear-gradient-39-coding-2-22);}.cls-11_coding-2-22{fill:url(#linear-gradient-34-coding-2-22);}.cls-12_coding-2-22{fill:url(#linear-gradient-37-coding-2-22);}.cls-13_coding-2-22{fill:url(#linear-gradient-35-coding-2-22);}.cls-14_coding-2-22{fill:url(#linear-gradient-28-coding-2-22);}.cls-15_coding-2-22{fill:url(#linear-gradient-25-coding-2-22);}.cls-16_coding-2-22{fill:url(#linear-gradient-11-coding-2-22);}.cls-17_coding-2-22{fill:url(#linear-gradient-12-coding-2-22);}.cls-18_coding-2-22{fill:url(#linear-gradient-13-coding-2-22);}.cls-19_coding-2-22{fill:url(#linear-gradient-10-coding-2-22);}.cls-20_coding-2-22{fill:url(#linear-gradient-17-coding-2-22);}.cls-21_coding-2-22{fill:url(#linear-gradient-16-coding-2-22);}.cls-22_coding-2-22{fill:url(#linear-gradient-19-coding-2-22);}.cls-23_coding-2-22{fill:url(#linear-gradient-15-coding-2-22);}.cls-24_coding-2-22{fill:url(#linear-gradient-23-coding-2-22);}.cls-25_coding-2-22{fill:url(#linear-gradient-21-coding-2-22);}.cls-26_coding-2-22{fill:url(#linear-gradient-18-coding-2-22);}.cls-27_coding-2-22{fill:url(#linear-gradient-14-coding-2-22);}.cls-28_coding-2-22{fill:url(#linear-gradient-22-coding-2-22);}.cls-29_coding-2-22{fill:url(#linear-gradient-20-coding-2-22);}.cls-30_coding-2-22{fill:url(#linear-gradient-27-coding-2-22);}.cls-31_coding-2-22{fill:url(#linear-gradient-24-coding-2-22);}.cls-32_coding-2-22{fill:url(#linear-gradient-26-coding-2-22);}.cls-33_coding-2-22{fill:url(#linear-gradient-45-coding-2-22);}.cls-34_coding-2-22{fill:url(#linear-gradient-44-coding-2-22);}.cls-35_coding-2-22{fill:url(#linear-gradient-48-coding-2-22);}.cls-36_coding-2-22{fill:url(#linear-gradient-49-coding-2-22);}.cls-37_coding-2-22{fill:url(#linear-gradient-47-coding-2-22);}.cls-38_coding-2-22{fill:url(#linear-gradient-42-coding-2-22);}.cls-39_coding-2-22{fill:url(#linear-gradient-43-coding-2-22);}.cls-40_coding-2-22{fill:url(#linear-gradient-40-coding-2-22);}.cls-41_coding-2-22{fill:url(#linear-gradient-41-coding-2-22);}.cls-42_coding-2-22{fill:url(#linear-gradient-51-coding-2-22);}.cls-43_coding-2-22{fill:url(#linear-gradient-52-coding-2-22);}.cls-44_coding-2-22{fill:url(#linear-gradient-50-coding-2-22);}.cls-45_coding-2-22{fill:url(#linear-gradient-46-coding-2-22);opacity:.48;}.cls-58_coding-2-22{fill:none;stroke:#68e1fd;stroke-miterlimit:10;stroke-width:1.18px;}.cls-46_coding-2-22{fill:url(#linear-gradient-4-coding-2-22);}.cls-47_coding-2-22{fill:url(#linear-gradient-2-coding-2-22);}.cls-48_coding-2-22{fill:url(#linear-gradient-3-coding-2-22);}.cls-49_coding-2-22{fill:url(#linear-gradient-8-coding-2-22);}.cls-50_coding-2-22{fill:url(#linear-gradient-9-coding-2-22);}.cls-51_coding-2-22{fill:url(#linear-gradient-7-coding-2-22);}.cls-52_coding-2-22{fill:url(#linear-gradient-5-coding-2-22);}.cls-53_coding-2-22{fill:url(#linear-gradient-6-coding-2-22);}.cls-54_coding-2-22{fill:#231f20;}.cls-55_coding-2-22{fill:#fff;}.cls-56_coding-2-22{fill:#ffb4a3;}</style><style class="darkreader darkreader--sync" media="screen"/><linearGradient id="linear-gradient-coding-2-22" x1="42.68" y1="1627.39" x2="901.47" y2="1477.26" gradientTransform="translate(-31 1892.57) scale(1 -1)" gradientUnits="userSpaceOnUse"><stop offset="0" stop-color="#000" stop-opacity="0" data-darkreader-inline-stopcolor="" style="--darkreader-inline-stopcolor: #000000;"/><stop offset=".99" stop-color="#000" data-darkreader-inline-stopcolor="" style="--darkreader-inline-stopcolor: #000000;"/></linearGradient><linearGradient id="linear-gradient-2-coding-2-22" x1="374.24" y1="1627.39" x2="1233.03" y2="1477.26" xlink:href="#linear-gradient-coding-2-22"/><linearGradient id="linear-gradient-3-coding-2-22" x1="220.24" y1="1752.05" x2="192.63" y2="1213.37" xlink:href="#linear-gradient-coding-2-22"/><linearGradient id="linear-gradient-4-coding-2-22" x1="217.92" y1="1647.22" x2="222.06" y2="1847.56" gradientTransform="translate(-31 1892.57) scale(1 -1)" gradientUnits="userSpaceOnUse"><stop offset="0" stop-color="#fff" stop-opacity="0" data-darkreader-inline-stopcolor="" style="--darkreader-inline-stopcolor: #181a1b;"/><stop offset=".99" stop-color="#fff" data-darkreader-inline-stopcolor="" style="--darkreader-inline-stopcolor: #181a1b;"/></linearGradient><linearGradient id="linear-gradient-5-coding-2-22" x1="255.25" y1="1739.1" x2="707.27" y2="1711.5" gradientTransform="translate(-32.43 1886.43) scale(1 -1)" xlink:href="#linear-gradient-coding-2-22"/><linearGradient id="linear-gradient-6-coding-2-22" x1="224.77" y1="1666.45" x2="224.58" y2="1719.81" xlink:href="#linear-gradient-coding-2-22"/><linearGradient id="linear-gradient-7-coding-2-22" x1="223.86" y1="1674.56" x2="225.41" y2="1632.06" xlink:href="#linear-gradient-coding-2-22"/><linearGradient id="linear-gradient-8-coding-2-22" x1="119.58" y1="1743.7" x2="187.74" y2="1755.29" xlink:href="#linear-gradient-4-coding-2-22"/><linearGradient id="linear-gradient-9-coding-2-22" x1="175.75" y1="1830.47" x2="174.37" y2="1756.78" xlink:href="#linear-gradient-4-coding-2-22"/><linearGradient id="linear-gradient-10-coding-2-22" x1="170.93" y1="1830.55" x2="169.56" y2="1756.88" xlink:href="#linear-gradient-4-coding-2-22"/><linearGradient id="linear-gradient-11-coding-2-22" x1="208.8" y1="1829.85" x2="207.42" y2="1756.16" xlink:href="#linear-gradient-4-coding-2-22"/><linearGradient id="linear-gradient-12-coding-2-22" x1="250.89" y1="1829.06" x2="249.51" y2="1755.38" xlink:href="#linear-gradient-4-coding-2-22"/><linearGradient id="linear-gradient-13-coding-2-22" x1="181.82" y1="1830.35" x2="180.44" y2="1756.67" xlink:href="#linear-gradient-4-coding-2-22"/><linearGradient id="linear-gradient-14-coding-2-22" x1="190.65" y1="1830.19" x2="189.27" y2="1756.51" xlink:href="#linear-gradient-4-coding-2-22"/><linearGradient id="linear-gradient-15-coding-2-22" x1="215.3" y1="1829.73" x2="213.92" y2="1756.04" xlink:href="#linear-gradient-4-coding-2-22"/><linearGradient id="linear-gradient-16-coding-2-22" x1="187.82" y1="1830.24" x2="186.44" y2="1756.56" xlink:href="#linear-gradient-4-coding-2-22"/><linearGradient id="linear-gradient-17-coding-2-22" x1="263.02" y1="1828.84" x2="261.65" y2="1755.15" xlink:href="#linear-gradient-4-coding-2-22"/><linearGradient id="linear-gradient-18-coding-2-22" x1="219.3" y1="1829.65" x2="217.92" y2="1755.97" xlink:href="#linear-gradient-4-coding-2-22"/><linearGradient id="linear-gradient-19-coding-2-22" x1="247.46" y1="1829.12" x2="246.07" y2="1755.44" xlink:href="#linear-gradient-4-coding-2-22"/><linearGradient id="linear-gradient-20-coding-2-22" x1="175.75" y1="1811.43" x2="174.37" y2="1737.74" xlink:href="#linear-gradient-4-coding-2-22"/><linearGradient id="linear-gradient-21-coding-2-22" x1="170.93" y1="1811.52" x2="169.56" y2="1737.83" xlink:href="#linear-gradient-4-coding-2-22"/><linearGradient id="linear-gradient-22-coding-2-22" x1="208.8" y1="1810.81" x2="207.42" y2="1737.12" xlink:href="#linear-gradient-4-coding-2-22"/><linearGradient id="linear-gradient-23-coding-2-22" x1="250.89" y1="1810.02" x2="249.51" y2="1736.34" xlink:href="#linear-gradient-4-coding-2-22"/><linearGradient id="linear-gradient-24-coding-2-22" x1="181.82" y1="1811.32" x2="180.44" y2="1737.63" xlink:href="#linear-gradient-4-coding-2-22"/><linearGradient id="linear-gradient-25-coding-2-22" x1="190.65" y1="1811.15" x2="189.27" y2="1737.46" xlink:href="#linear-gradient-4-coding-2-22"/><linearGradient id="linear-gradient-26-coding-2-22" x1="215.3" y1="1810.69" x2="213.92" y2="1737" xlink:href="#linear-gradient-4-coding-2-22"/><linearGradient id="linear-gradient-27-coding-2-22" x1="187.82" y1="1811.2" x2="186.44" y2="1737.52" xlink:href="#linear-gradient-4-coding-2-22"/><linearGradient id="linear-gradient-28-coding-2-22" x1="263.02" y1="1809.79" x2="261.65" y2="1736.11" xlink:href="#linear-gradient-4-coding-2-22"/><linearGradient id="linear-gradient-29-coding-2-22" x1="219.3" y1="1810.61" x2="217.92" y2="1736.93" xlink:href="#linear-gradient-4-coding-2-22"/><linearGradient id="linear-gradient-30-coding-2-22" x1="247.46" y1="1810.08" x2="246.07" y2="1736.4" xlink:href="#linear-gradient-4-coding-2-22"/><linearGradient id="linear-gradient-31-coding-2-22" x1="175.75" y1="1792.38" x2="174.37" y2="1718.71" xlink:href="#linear-gradient-4-coding-2-22"/><linearGradient id="linear-gradient-32-coding-2-22" x1="170.93" y1="1792.48" x2="169.56" y2="1718.79" xlink:href="#linear-gradient-4-coding-2-22"/><linearGradient id="linear-gradient-33-coding-2-22" x1="208.8" y1="1791.77" x2="207.42" y2="1718.09" xlink:href="#linear-gradient-4-coding-2-22"/><linearGradient id="linear-gradient-34-coding-2-22" x1="250.89" y1="1790.98" x2="249.51" y2="1717.29" xlink:href="#linear-gradient-4-coding-2-22"/><linearGradient id="linear-gradient-35-coding-2-22" x1="181.82" y1="1792.27" x2="180.44" y2="1718.59" xlink:href="#linear-gradient-4-coding-2-22"/><linearGradient id="linear-gradient-36-coding-2-22" x1="190.65" y1="1792.11" x2="189.26" y2="1718.42" xlink:href="#linear-gradient-4-coding-2-22"/><linearGradient id="linear-gradient-37-coding-2-22" x1="215.3" y1="1791.65" x2="213.92" y2="1717.96" xlink:href="#linear-gradient-4-coding-2-22"/><linearGradient id="linear-gradient-38-coding-2-22" x1="187.82" y1="1792.16" x2="186.44" y2="1718.48" xlink:href="#linear-gradient-4-coding-2-22"/><linearGradient id="linear-gradient-39-coding-2-22" x1="263.02" y1="1790.75" x2="261.65" y2="1717.07" xlink:href="#linear-gradient-4-coding-2-22"/><linearGradient id="linear-gradient-40-coding-2-22" x1="219.3" y1="1791.57" x2="217.92" y2="1717.88" xlink:href="#linear-gradient-4-coding-2-22"/><linearGradient id="linear-gradient-41-coding-2-22" x1="247.46" y1="1791.04" x2="246.07" y2="1717.36" xlink:href="#linear-gradient-4-coding-2-22"/><linearGradient id="linear-gradient-42-coding-2-22" x1="230.88" y1="1480.49" x2="300.98" y2="1439.93" gradientTransform="translate(-32.43 1886.43) scale(1 -1)" xlink:href="#linear-gradient-coding-2-22"/><linearGradient id="linear-gradient-43-coding-2-22" x1="188.82" y1="1546.49" x2="618.76" y2="1560.83" gradientTransform="translate(-32.43 1886.43) scale(1 -1)" xlink:href="#linear-gradient-coding-2-22"/><linearGradient id="linear-gradient-44-coding-2-22" x1="350.7" y1="1477.71" x2="328.91" y2="1450.94" gradientTransform="translate(-32.43 1886.43) scale(1 -1)" xlink:href="#linear-gradient-coding-2-22"/><linearGradient id="linear-gradient-45-coding-2-22" x1="285.47" y1="1672.49" x2="735.01" y2="1621.16" gradientTransform="translate(-32.43 1886.43) scale(1 -1)" xlink:href="#linear-gradient-coding-2-22"/><linearGradient id="linear-gradient-46-coding-2-22" x1="269.74" y1="1651.89" x2="677.05" y2="1418.43" gradientTransform="translate(-32.43 1886.43) scale(1 -1)" xlink:href="#linear-gradient-coding-2-22"/><linearGradient id="linear-gradient-47-coding-2-22" x1="298.6" y1="1494.94" x2="341.66" y2="1786.91" xlink:href="#linear-gradient-coding-2-22"/><linearGradient id="linear-gradient-48-coding-2-22" x1="301.38" y1="1546.49" x2="436.6" y2="1797.61" gradientTransform="translate(-32.43 1886.43) scale(1 -1)" xlink:href="#linear-gradient-4-coding-2-22"/><linearGradient id="linear-gradient-49-coding-2-22" x1="328.57" y1="1475.97" x2="334.1" y2="1620.3" xlink:href="#linear-gradient-coding-2-22"/><linearGradient id="linear-gradient-50-coding-2-22" x1="322.48" y1="1467.57" x2="375.19" y2="1426.18" xlink:href="#linear-gradient-coding-2-22"/><linearGradient id="linear-gradient-51-coding-2-22" x1="311.91" y1="1786.07" x2="348.33" y2="1763.45" gradientTransform="translate(-32.43 1886.43) scale(1 -1)" xlink:href="#linear-gradient-coding-2-22"/><linearGradient id="linear-gradient-52-coding-2-22" x1="272.21" y1="1685.79" x2="245.16" y2="1716.14" gradientTransform="translate(-32.43 1886.43) scale(1 -1)" xlink:href="#linear-gradient-4-coding-2-22"/></defs><path id="background_coding-2-22" class="cls-2_coding-2-22 targetColor" d="M306.29,430.25c22.99.28,46.05.54,68.87-2.22,11.39-1.37,22.87-3.55,33.08-8.76,11.25-5.74,20.38-14.88,28.72-24.37,18-20.48,33.44-43.73,41.56-69.75,8.12-26.02,8.48-55.1-2.66-79.99-7.39-16.62-19.7-31.07-24.24-48.65-7.54-29.16,7.64-60.95-1.25-89.74-3.4-11.01-10.16-20.71-17.81-29.31-30.66-34.38-78.5-52.64-124.24-47.48-57.18,6.46-107.01,46.3-164.38,50.12-19.39,1.28-39.18-1.63-58.18,2.4-33.31,7.06-60.39,37.16-63.89,71.03-2.33,22.62,4.85,44.96,9.92,67.12,5.36,23.45,8.31,48.24,1.66,71.35-5.02,17.4-15.27,32.9-20.71,50.17-5.03,15.85-5.77,32.72-5.2,49.32.18,4.91.52,9.97,2.65,14.41,7.23,14.97,35.35,19.34,50.09,20.66,26.06,2.35,53.25.77,79.42,1.22,55.54.97,111.07,1.8,166.58,2.48Z" style="fill: rgb(13, 110, 253); --darkreader-inline-fill: #2394fd;" data-darkreader-inline-fill=""/><g id="table_coding-2-22"><rect class="cls-57_coding-2-22 targetColor" x="387.41" y="251.05" width="45.34" height="184.74" style="fill: rgb(13, 110, 253); --darkreader-inline-fill: #2394fd;" data-darkreader-inline-fill=""/><rect class="cls-57_coding-2-22 targetColor" x="55.71" y="251.05" width="45.34" height="184.74" style="fill: rgb(13, 110, 253); --darkreader-inline-fill: #2394fd;" data-darkreader-inline-fill=""/><rect class="cls-1_coding-2-22" x="55.71" y="251.05" width="45.34" height="51.59"/><rect class="cls-47_coding-2-22" x="387.29" y="251.05" width="45.34" height="51.59"/><rect class="cls-57_coding-2-22 targetColor" x="38.92" y="235.94" width="403.92" height="18.47" style="fill: rgb(13, 110, 253); --darkreader-inline-fill: #2394fd;" data-darkreader-inline-fill=""/></g><g id="bubble_coding-2-22"><path class="cls-2_coding-2-22 targetColor" d="M414.88,76.67v42.9c0,4.73-3.84,8.57-8.58,8.57h-31.47l-13.35,19.92v-19.92h-21.74c-4.73,0-8.57-3.83-8.58-8.56h0v-42.91c0-4.73,3.84-8.57,8.57-8.57,0,0,0,0,0,0h66.57c4.73,0,8.57,3.84,8.58,8.57Z" style="fill: rgb(13, 110, 253); --darkreader-inline-fill: #2394fd;" data-darkreader-inline-fill=""/><path class="cls-55_coding-2-22" d="M411.57,74.46v42.9c0,4.73-3.84,8.57-8.57,8.57,0,0,0,0,0,0h-31.46l-13.36,19.92v-19.89h-21.73c-4.74,0-8.58-3.83-8.59-8.57v-42.92c0-4.74,3.85-8.58,8.59-8.57h66.56c4.73,0,8.57,3.83,8.58,8.56h0Z"/><path class="cls-57_coding-2-22 targetColor" d="M352.3,96.6l13.5-6.95v2.01l-11.38,5.67v.06l11.38,5.7v2.01l-13.5-6.95v-1.55Z" style="fill: rgb(13, 110, 253); --darkreader-inline-fill: #2394fd;" data-darkreader-inline-fill=""/><path class="cls-57_coding-2-22 targetColor" d="M367.69,106.29l8.12-21.1h1.98l-8.15,21.1h-1.95Z" style="fill: rgb(13, 110, 253); --darkreader-inline-fill: #2394fd;" data-darkreader-inline-fill=""/><path class="cls-57_coding-2-22 targetColor" d="M393.11,98.25l-13.49,6.93v-2.06l11.46-5.7v-.09l-11.46-5.7v-1.99l13.49,6.93v1.68Z" style="fill: rgb(13, 110, 253); --darkreader-inline-fill: #2394fd;" data-darkreader-inline-fill=""/></g><g id="monitor_coding-2-22"><rect class="cls-57_coding-2-22 targetColor" x="90.56" y="83.95" width="197.34" height="124.28" rx="9.72" ry="9.72" style="fill: rgb(13, 110, 253); --darkreader-inline-fill: #2394fd;" data-darkreader-inline-fill=""/><rect class="cls-48_coding-2-22" x="96.62" y="89.14" width="184.72" height="112.72" rx="8.96" ry="8.96"/><rect class="cls-46_coding-2-22" x="96.62" y="89.14" width="184.72" height="112.72" rx="8.96" ry="8.96"/><path class="cls-52_coding-2-22" d="M256.51,136.59c-4.62,8.31-11.08,15.44-15.38,23.92-3.11,6.2-4.96,12.93-7.77,19.28-2.81,6.35-6.82,12.5-12.93,15.85-2.48,1.37-5.45,2.42-6.73,4.94,13,2.04,26.15,2.97,39.31,2.77.84.05,1.68-.09,2.47-.4.92-.56,1.67-1.34,2.2-2.27,8.94-12.8,23.72-22.01,28.06-37.01,2-6.9,1.49-14.25.92-21.42-.68-9.37-1.38-18.77-2.77-28.07-1.03-7.03-1.78-14.67-9.24-17.65-4.29-1.73-10.32-1.85-14.35.68-5.59,3.44-2.89,7.39-.76,12.18,4.16,8.93,1.55,19-3.04,27.19Z"/><rect class="cls-57_coding-2-22 targetColor" x="165.09" y="208.17" width="57.31" height="23.72" style="fill: rgb(13, 110, 253); --darkreader-inline-fill: #2394fd;" data-darkreader-inline-fill=""/><rect class="cls-53_coding-2-22" x="165.09" y="208.17" width="57.31" height="23.72"/><rect class="cls-57_coding-2-22 targetColor" x="139.18" y="225.8" width="104.97" height="10.08" style="fill: rgb(13, 110, 253); --darkreader-inline-fill: #2394fd;" data-darkreader-inline-fill=""/><rect class="cls-51_coding-2-22" x="140.83" y="226.53" width="104.97" height="7.9"/><rect class="cls-49_coding-2-22" x="108.62" y="96.6" width="7.79" height="96.41"/><rect class="cls-50_coding-2-22" x="131.27" y="111.94" width="25.05" height="1.84"/><rect class="cls-19_coding-2-22" x="131.27" y="115.49" width="15.29" height="1.73"/><rect class="cls-16_coding-2-22" x="152.73" y="115.49" width="48.12" height="1.74"/><rect class="cls-17_coding-2-22" x="205.35" y="115.49" width="27.09" height="1.74"/><rect class="cls-18_coding-2-22" x="139.22" y="119.06" width="21.03" height="1.82"/><rect class="cls-27_coding-2-22" x="145.97" y="122.61" width="25.05" height="1.84"/><rect class="cls-23_coding-2-22" x="172.66" y="122.61" width="21" height="2.04"/><rect class="cls-21_coding-2-22" x="145.94" y="126.17" width="19.35" height="1.73"/><rect class="cls-20_coding-2-22" x="221.17" y="126.17" width="19.35" height="1.73"/><rect class="cls-26_coding-2-22" x="167.14" y="126.17" width="39.92" height="1.91"/><rect class="cls-22_coding-2-22" x="210.86" y="126.17" width="8.8" height="1.95"/><rect class="cls-29_coding-2-22" x="131.27" y="130.98" width="25.05" height="1.84"/><rect class="cls-25_coding-2-22" x="131.27" y="134.53" width="15.29" height="1.73"/><rect class="cls-28_coding-2-22" x="152.73" y="134.53" width="48.12" height="1.74"/><rect class="cls-24_coding-2-22" x="205.35" y="134.53" width="27.09" height="1.74"/><rect class="cls-31_coding-2-22" x="139.22" y="138.09" width="21.03" height="1.82"/><rect class="cls-15_coding-2-22" x="145.97" y="141.66" width="25.05" height="1.84"/><rect class="cls-32_coding-2-22" x="172.66" y="141.66" width="21" height="2.04"/><rect class="cls-30_coding-2-22" x="145.94" y="145.21" width="19.35" height="1.73"/><rect class="cls-14_coding-2-22" x="221.17" y="145.21" width="19.35" height="1.73"/><rect class="cls-5_coding-2-22" x="167.14" y="145.21" width="39.92" height="1.91"/><rect class="cls-7_coding-2-22" x="210.86" y="145.21" width="8.8" height="1.95"/><rect class="cls-8_coding-2-22" x="131.27" y="150.02" width="25.05" height="1.84"/><rect class="cls-6_coding-2-22" x="131.27" y="153.58" width="15.29" height="1.73"/><rect class="cls-4_coding-2-22" x="152.73" y="153.58" width="48.12" height="1.74"/><rect class="cls-11_coding-2-22" x="205.35" y="153.58" width="27.09" height="1.74"/><rect class="cls-13_coding-2-22" x="139.22" y="157.13" width="21.03" height="1.82"/><rect class="cls-9_coding-2-22" x="145.97" y="160.69" width="25.05" height="1.84"/><rect class="cls-12_coding-2-22" x="172.66" y="160.69" width="21" height="2.04"/><rect class="cls-3_coding-2-22" x="145.94" y="164.25" width="19.35" height="1.73"/><rect class="cls-10_coding-2-22" x="221.17" y="164.25" width="19.35" height="1.73"/><rect class="cls-40_coding-2-22" x="167.14" y="164.25" width="39.92" height="1.91"/><rect class="cls-41_coding-2-22" x="210.86" y="164.25" width="8.8" height="1.95"/></g><g id="character_coding-2-22"><path class="cls-57_coding-2-22 targetColor" d="M242.64,421.88c.27.73.3,1.52.09,2.26-.17.41-.41.78-.72,1.1-2.85,3.22-7.11,4.77-11.17,6.18-1.42.53-2.87.95-4.35,1.26-1.58.24-3.18.34-4.78.29-5.25-.04-10.49-.37-15.7-1,2.3-5.86,7.4-10.15,13.57-11.41,2.87-.56,5.83-.42,8.74-.71.41.02.8-.16,1.05-.48.11-.3.11-.63,0-.92l-1.16-4.34c-.14-.37-.17-.77-.06-1.15.19-.54.81-.78,1.36-.92,1.97-.57,3.27-6.34,5.37-6.46s5.03,6.77,5.4,8.96c.44,2.7,2.07,6.22,2.37,7.36Z" style="fill: rgb(13, 110, 253); --darkreader-inline-fill: #2394fd;" data-darkreader-inline-fill=""/><path class="cls-38_coding-2-22" d="M242.64,421.88c.27.73.3,1.52.09,2.26-.17.41-.41.78-.72,1.1-2.85,3.22-7.11,4.77-11.17,6.18-1.42.53-2.87.95-4.35,1.26-1.58.24-3.18.34-4.78.29-5.25-.04-10.49-.37-15.7-1,2.3-5.86,7.4-10.15,13.57-11.41,2.87-.56,5.83-.42,8.74-.71.41.02.8-.16,1.05-.48.11-.3.11-.63,0-.92l-1.16-4.34c-.14-.37-.17-.77-.06-1.15.19-.54.81-.78,1.36-.92,1.97-.57,3.27-6.34,5.37-6.46s5.03,6.77,5.4,8.96c.44,2.7,2.07,6.22,2.37,7.36Z"/><path class="cls-57_coding-2-22 targetColor" d="M242.97,279.6s-61.3,26.87-63.82,31.49-1.68,16.37,2.11,21.42c3.79,5.04,45.34,81.04,45.34,81.04l13.85-3.79-27.29-82.29s75.58-4.19,81.04-9.65c5.46-5.46,13.01-21.83,13.01-21.83l-39.47-35.69-24.77,19.31Z" style="fill: rgb(13, 110, 253); --darkreader-inline-fill: #2394fd;" data-darkreader-inline-fill=""/><path class="cls-39_coding-2-22" d="M242.97,279.6s-61.3,26.87-63.82,31.49-1.68,16.37,2.11,21.42c3.79,5.04,45.34,81.04,45.34,81.04l13.85-3.79-27.29-82.29s75.58-4.19,81.04-9.65c5.46-5.46,13.01-21.83,13.01-21.83l-39.47-35.69-24.77,19.31Z"/><path class="cls-57_coding-2-22 targetColor" d="M300.97,427.07c5.47,5.24,13.77,6.32,21.24,5.46,1.27-.15,2.71-.45,3.33-1.56s.16-2.5-.52-3.58c-1.59-2.51-4.17-4.23-6.76-5.69-3.83-2.14-7.88-3.87-12.08-5.16-.89-.21-1.72-.58-2.47-1.1-1.63-1.29-1.79-3.69-3.08-5.36-.54-.69-6.7-2.35-7.3-1.85-1.85,1.42.36,5.91,1.16,8.02,1.54,3.91,3.39,7.86,6.48,10.82Z" style="fill: rgb(13, 110, 253); --darkreader-inline-fill: #2394fd;" data-darkreader-inline-fill=""/><path class="cls-34_coding-2-22" d="M300.97,427.07c5.47,5.24,13.77,6.32,21.24,5.46,1.27-.15,2.71-.45,3.33-1.56s.16-2.5-.52-3.58c-1.59-2.51-4.17-4.23-6.76-5.69-3.83-2.14-7.88-3.87-12.08-5.16-.89-.21-1.72-.58-2.47-1.1-1.63-1.29-1.79-3.69-3.08-5.36-.54-.69-6.7-2.35-7.3-1.85-1.85,1.42.36,5.91,1.16,8.02,1.54,3.91,3.39,7.86,6.48,10.82Z"/><path class="cls-56_coding-2-22" d="M282.58,134.62c.27-.05.54,0,.78.14.15.16.25.37.28.59.19,1.39.28,2.79.28,4.19.01,1.41.5,2.78,1.39,3.87,1.39,1.47,3.63,1.61,5.64,1.66.42.03.85,0,1.27-.1.55-.25,1.08-.56,1.56-.92,1.43-.82,3.24-.68,4.71-1.43.57-.31,1.08-.7,1.51-1.17,2.91-3.05,3.18-7.82,2.2-11.93s-2.96-7.91-4.04-12.01c-.92-3.61-1.18-7.55-3.26-10.65-.39-.74-1.12-1.25-1.95-1.35-3.1-.55-6.26-.74-9.4-.56-2.53,0-5.17.14-7.39,1.35-1.42.77-5.39-5.29-6.39-4.03-.7.92.97,19.96,1.2,21.43,1.97,12.42,8.13,11.1,11.61,10.93Z"/><path class="cls-57_coding-2-22 targetColor" d="M253.67,170.44s6.72-23.94,20.79-28.34c14.07-4.41,35.27-5.67,40.1-4.41,4.83,1.26,18.68,9.03,20.15,31.29,1.47,22.26,2.72,33.38,2.72,33.38l-3.78,93.63s-51.64,8.39-65.5,2.1l-5.04-23.09-5.03,18.05-15.12-13.44,8.39-28.13s-1.26-67.19,2.31-81.04Z" style="fill: rgb(13, 110, 253); --darkreader-inline-fill: #2394fd;" data-darkreader-inline-fill=""/><path class="cls-33_coding-2-22" d="M253.67,170.44s6.72-23.94,20.79-28.34c14.07-4.41,35.27-5.67,40.1-4.41,4.83,1.26,18.68,9.03,20.15,31.29,1.47,22.26,2.72,33.38,2.72,33.38l-3.78,93.63s-51.64,8.39-65.5,2.1l-5.04-23.09-5.03,18.05-15.12-13.44,8.39-28.13s-1.26-67.19,2.31-81.04Z"/><path class="cls-45_coding-2-22" d="M307.74,202.61c-3.41,5.63-4.97,12.15-6.46,18.54l-9.82,41.48c-2.04,8.64-4.13,17.42-8.37,25.22-4.24,7.8-10.96,14.69-19.5,17.13-6.34,1.85-13.1,1.08-19.64,1.8-13.31,1.57-25.21,9.03-32.42,20.32,27.02.36,54.04-1.15,80.85-4.53,3.96-.5,8.06-1.09,11.44-3.22,3.96-2.51,6.4-6.82,8.31-11.08,4.17-9.12,6.84-18.85,9.24-28.63,3.88-16.04,6.94-32.26,9.16-48.6,2.03-14.9,6.18-33.53,3.63-48.34-9.76,2.2-21.22,11.37-26.41,19.9Z"/><polygon class="cls-58_coding-2-22" points="226.12 233.21 250.32 233 250.95 221.87 226.12 233.21"/><polygon class="cls-57_coding-2-22 targetColor" points="241.3 327.05 291.68 411.86 302.59 409.34 277.4 324.11 241.3 327.05" style="fill: rgb(13, 110, 253); --darkreader-inline-fill: #2394fd;" data-darkreader-inline-fill=""/><polygon class="cls-37_coding-2-22" points="241.3 327.05 291.68 411.86 302.59 409.34 277.4 324.11 241.3 327.05"/><path class="cls-57_coding-2-22 targetColor" d="M398.75,235.52c-2.11,8.41-20.18,78.5-20.18,78.5,0,0-4.62,19.32-18.88,19.32-7.66,0-45.14-.66-78.25-1.29-28.63-.54-54-1.03-54-1.03,0,0-3.35-12.38,7.12-13.24,10.47-.86,40.3,0,40.3,0,0,0,14.72-.8,20.59-15.51,4.83-12.01,15.83-60.76,19.68-77.93,1.02-4.69,3.1-9.08,6.09-12.84,6.62-8.46,19.77-21.88,37.22-23,18.12-1.21,29.76,5.59,35.75,11.63,1.92,1.82,3.47,3.99,4.56,6.4,2.1,5.48,2.1,20.59,0,29.01Z" style="fill: rgb(13, 110, 253); --darkreader-inline-fill: #2394fd;" data-darkreader-inline-fill=""/><path class="cls-35_coding-2-22" d="M394.18,200.13c0,.54,0,1.03-.05,1.57,0,0-35.3-12.57-61.74,27.1l-24.57,86.26s-4.88,16.37-26.39,17c-28.63-.54-54-1.03-54-1.03,0,0-3.35-12.38,7.12-13.24,10.47-.86,40.3,0,40.3,0,0,0,14.72-.8,20.59-15.51,4.83-12.01,15.83-60.76,19.68-77.93,1.02-4.69,3.1-9.08,6.09-12.84,6.62-8.46,19.77-21.88,37.22-23,18.12-1.21,29.76,5.59,35.75,11.63Z"/><rect class="cls-57_coding-2-22 targetColor" x="295.45" y="332.33" width="6.71" height="103.89" style="fill: rgb(13, 110, 253); --darkreader-inline-fill: #2394fd;" data-darkreader-inline-fill=""/><rect class="cls-36_coding-2-22" x="295.45" y="332.33" width="6.71" height="103.89"/><path class="cls-57_coding-2-22 targetColor" d="M276.41,428.01h48.37c2.3,0,4.16,1.86,4.16,4.16h0c0,2.3-1.86,4.16-4.16,4.16h-48.37c-2.3,0-4.16-1.86-4.16-4.16h0c0-2.3,1.86-4.16,4.16-4.16Z" style="fill: rgb(13, 110, 253); --darkreader-inline-fill: #2394fd;" data-darkreader-inline-fill=""/><path class="cls-44_coding-2-22" d="M276.41,428.01h48.37c2.3,0,4.16,1.86,4.16,4.16h0c0,2.3-1.86,4.16-4.16,4.16h-48.37c-2.3,0-4.16-1.86-4.16-4.16h0c0-2.3,1.86-4.16,4.16-4.16Z"/><path class="cls-54_coding-2-22" d="M280.82,86.31c-1.74,1.29-3.24,2.89-5.07,4.04-2.52,1.49-5.39,2.29-8.31,2.29-1.99.06-4.41.09-5.37,1.85-.78,1.43,0,3.24,1,4.52.94,1.16,2.09,2.12,3.4,2.84.67.31,1.29.71,1.85,1.18,1.14,1.15,1.15,2.98,1.85,4.44,1,2.05,3.27,3.14,4.73,4.89,2.87,3.44,2.17,8.76,4.62,12.5,1.48,2,3.52,3.51,5.86,4.34,3.14,1.37,6.61,1.84,10,1.37,3.39-.48,6.46-2.29,8.53-5.01,1.75-2.43,2.45-5.44,2.95-8.39.99-5.81,1.33-11.84-.13-17.55-2.88-11.22-14.76-21.6-25.9-13.32Z"/><path class="cls-42_coding-2-22" d="M280.82,86.31c-1.74,1.29-3.24,2.89-5.07,4.04-2.52,1.49-5.39,2.29-8.31,2.29-1.99.06-4.41.09-5.37,1.85-.78,1.43,0,3.24,1,4.52.94,1.16,2.09,2.12,3.4,2.84.67.31,1.29.71,1.85,1.18,1.14,1.15,1.15,2.98,1.85,4.44,1,2.05,3.27,3.14,4.73,4.89,2.87,3.44,2.17,8.76,4.62,12.5,1.48,2,3.52,3.51,5.86,4.34,3.14,1.37,6.61,1.84,10,1.37,3.39-.48,6.46-2.29,8.53-5.01,1.75-2.43,2.45-5.44,2.95-8.39.99-5.81,1.33-11.84-.13-17.55-2.88-11.22-14.76-21.6-25.9-13.32Z"/><path class="cls-57_coding-2-22 targetColor" d="M283.76,151.18c2.46,3.44,3.29,7.79,2.27,11.89-2.42,10.5-9.12,35.42-20.39,46.18-14.49,13.85-36.52,28.34-82.19,27.09l.64-12.6s49.44-4.41,53.84-20.79,21.73-51.64,28.03-55.11c4.95-2.7,12.83-3.28,17.81,3.33Z" style="fill: rgb(13, 110, 253); --darkreader-inline-fill: #2394fd;" data-darkreader-inline-fill=""/><path class="cls-43_coding-2-22" d="M283.76,151.18c2.46,3.44,3.29,7.79,2.27,11.89-2.42,10.5-9.12,35.42-20.39,46.18-14.49,13.85-36.52,28.34-82.19,27.09l.64-12.6s49.44-4.41,53.84-20.79,21.73-51.64,28.03-55.11c4.95-2.7,12.83-3.28,17.81,3.33Z"/><path class="cls-56_coding-2-22" d="M175.29,223.09c-7.61-1.46-15.42,1.3-20.43,7.22l10.94,1.07c.71,0,1.41.2,2.02.55.47.44.92.9,1.34,1.39.94.66,2.08.98,3.23.92,3.43.16,6.86.17,10.29,0,.42.03.85-.09,1.2-.32.27-.27.45-.63.51-1.01.45-1.75,1.45-6.67-.25-7.9-.79-.56-3.23-.49-4.26-.76-1.53-.35-3.04-.86-4.6-1.17Z"/></g></svg>